{
    "asset" : {
        "generator" : "Khronos glTF Blender I/O v1.3.48",
        "version" : "2.0"
    },
    "scene" : 0,
    "scenes" : [
        {
            "name" : "Scene",
            "nodes" : [
                0
            ]
        }
    ],
    "nodes" : [
        {
            "mesh" : 0,
            "name" : "Gallery"
        }
    ],
    "materials" : [
        {
            "doubleSided" : true,
            "emissiveFactor" : [
                0,
                0,
                0
            ],
            "name" : "Floor",
            "pbrMetallicRoughness" : {
                "baseColorFactor" : [
                    0.17464753985404968,
                    0.1746474951505661,
                    0.1746475100517273,
                    1
                ],
                "metallicFactor" : 0,
                "roughnessFactor" : 0.5
            }
        },
        {
            "doubleSided" : true,
            "emissiveFactor" : [
                0,
                0,
                0
            ],
            "name" : "Walls",
            "pbrMetallicRoughness" : {
                "baseColorFactor" : [
                    0.7123526930809021,
                    0.7123526930809021,
                    0.7123526930809021,
                    1
                ],
                "metallicFactor" : 0,
                "roughnessFactor" : 0.5
            }
        },
        {
            "doubleSided" : true,
            "emissiveFactor" : [
                1,
                1,
                1
            ],
            "emissiveTexture" : {
                "index" : 0,
                "texCoord" : 0
            },
            "name" : "Kusama",
            "pbrMetallicRoughness" : {
                "baseColorTexture" : {
                    "index" : 1,
                    "texCoord" : 0
                },
                "metallicFactor" : 0,
                "roughnessFactor" : 0.5
            }
        },
        {
            "doubleSided" : true,
            "emissiveFactor" : [
                0,
                0,
                0
            ],
            "name" : "DoorFrame",
            "pbrMetallicRoughness" : {
                "baseColorFactor" : [
                    0.07227185368537903,
                    0.07227186113595963,
                    0.07227186858654022,
                    1
                ],
                "metallicFactor" : 0,
                "roughnessFactor" : 0.5
            }
        },
        {
            "doubleSided" : true,
            "emissiveFactor" : [
                0,
                0,
                0
            ],
            "name" : "Roof",
            "pbrMetallicRoughness" : {
                "baseColorFactor" : [
                    0.2050788402557373,
                    0.20507873594760895,
                    0.20507879555225372,
                    1
                ],
                "metallicFactor" : 0,
                "roughnessFactor" : 0.5
            }
        },
        {
            "doubleSided" : true,
            "emissiveFactor" : [
                1,
                0.32880905270576477,
                0.3600139617919922
            ],
            "name" : "EdgeLight",
            "pbrMetallicRoughness" : {
                "baseColorFactor" : [
                    0.022084766998887062,
                    0.022084766998887062,
                    0.022084766998887062,
                    1
                ],
                "metallicFactor" : 0,
                "roughnessFactor" : 0.5
            }
        },
        {
            "doubleSided" : true,
            "emissiveFactor" : [
                1,
                1,
                1
            ],
            "emissiveTexture" : {
                "index" : 2,
                "texCoord" : 0
            },
            "name" : "Door",
            "pbrMetallicRoughness" : {
                "baseColorTexture" : {
                    "index" : 3,
                    "texCoord" : 0
                },
                "metallicFactor" : 0,
                "roughnessFactor" : 0.5
            }
        }
    ],
    "meshes" : [
        {
            "name" : "Gallery",
            "primitives" : [
                {
                    "attributes" : {
                        "POSITION" : 0,
                        "NORMAL" : 1,
                        "TEXCOORD_0" : 2
                    },
                    "indices" : 3,
                    "material" : 0
                },
                {
                    "attributes" : {
                        "POSITION" : 4,
                        "NORMAL" : 5,
                        "TEXCOORD_0" : 6
                    },
                    "indices" : 7,
                    "material" : 1
                },
                {
                    "attributes" : {
                        "POSITION" : 8,
                        "NORMAL" : 9,
                        "TEXCOORD_0" : 10
                    },
                    "indices" : 11,
                    "material" : 2
                },
                {
                    "attributes" : {
                        "POSITION" : 12,
                        "NORMAL" : 13,
                        "TEXCOORD_0" : 14
                    },
                    "indices" : 15,
                    "material" : 3
                },
                {
                    "attributes" : {
                        "POSITION" : 16,
                        "NORMAL" : 17,
                        "TEXCOORD_0" : 18
                    },
                    "indices" : 19,
                    "material" : 4
                },
                {
                    "attributes" : {
                        "POSITION" : 20,
                        "NORMAL" : 21,
                        "TEXCOORD_0" : 22
                    },
                    "indices" : 23,
                    "material" : 5
                },
                {
                    "attributes" : {
                        "POSITION" : 24,
                        "NORMAL" : 25,
                        "TEXCOORD_0" : 26
                    },
                    "indices" : 27,
                    "material" : 6
                }
            ]
        }
    ],
    "textures" : [
        {
            "source" : 0
        },
        {
            "source" : 1
        },
        {
            "source" : 2
        },
        {
            "source" : 3
        }
    ],
    "images" : [
        {
            "bufferView" : 12,
            "mimeType" : "image/png",
            "name" : "KusamaBakedGallery-Emissive"
        },
        {
            "bufferView" : 13,
            "mimeType" : "image/png",
            "name" : "KusamaBakedGallery"
        },
        {
            "bufferView" : 30,
            "mimeType" : "image/png",
            "name" : "Seam-Emissive"
        },
        {
            "bufferView" : 31,
            "mimeType" : "image/png",
            "name" : "Seam"
        }
    ],
    "accessors" : [
        {
            "bufferView" : 0,
            "componentType" : 5126,
            "count" : 21,
            "max" : [
                10,
                0,
                12
            ],
            "min" : [
                -10,
                0,
                -12
            ],
            "type" : "VEC3"
        },
        {
            "bufferView" : 1,
            "componentType" : 5126,
            "count" : 21,
            "type" : "VEC3"
        },
        {
            "bufferView" : 2,
            "componentType" : 5126,
            "count" : 21,
            "type" : "VEC2"
        },
        {
            "bufferView" : 3,
            "componentType" : 5123,
            "count" : 60,
            "type" : "SCALAR"
        },
        {
            "bufferView" : 4,
            "componentType" : 5126,
            "count" : 58,
            "max" : [
                10,
                3,
                12
            ],
            "min" : [
                -10,
                0,
                -12
            ],
            "type" : "VEC3"
        },
        {
            "bufferView" : 5,
            "componentType" : 5126,
            "count" : 58,
            "type" : "VEC3"
        },
        {
            "bufferView" : 6,
            "componentType" : 5126,
            "count" : 58,
            "type" : "VEC2"
        },
        {
            "bufferView" : 7,
            "componentType" : 5123,
            "count" : 114,
            "type" : "SCALAR"
        },
        {
            "bufferView" : 8,
            "componentType" : 5126,
            "count" : 16,
            "max" : [
                10,
                3,
                12
            ],
            "min" : [
                -10,
                0,
                -12
            ],
            "type" : "VEC3"
        },
        {
            "bufferView" : 9,
            "componentType" : 5126,
            "count" : 16,
            "type" : "VEC3"
        },
        {
            "bufferView" : 10,
            "componentType" : 5126,
            "count" : 16,
            "type" : "VEC2"
        },
        {
            "bufferView" : 11,
            "componentType" : 5123,
            "count" : 24,
            "type" : "SCALAR"
        },
        {
            "bufferView" : 14,
            "componentType" : 5126,
            "count" : 46,
            "max" : [
                -9.934414863586426,
                3,
                1.9955421686172485
            ],
            "min" : [
                -10,
                0,
                -1.9955421686172485
            ],
            "type" : "VEC3"
        },
        {
            "bufferView" : 15,
            "componentType" : 5126,
            "count" : 46,
            "type" : "VEC3"
        },
        {
            "bufferView" : 16,
            "componentType" : 5126,
            "count" : 46,
            "type" : "VEC2"
        },
        {
            "bufferView" : 17,
            "componentType" : 5123,
            "count" : 84,
            "type" : "SCALAR"
        },
        {
            "bufferView" : 18,
            "componentType" : 5126,
            "count" : 26,
            "max" : [
                9.924493789672852,
                3.715000867843628,
                11.901841163635254
            ],
            "min" : [
                -9.911910057067871,
                3.0077621936798096,
                -11.901841163635254
            ],
            "type" : "VEC3"
        },
        {
            "bufferView" : 19,
            "componentType" : 5126,
            "count" : 26,
            "type" : "VEC3"
        },
        {
            "bufferView" : 20,
            "componentType" : 5126,
            "count" : 26,
            "type" : "VEC2"
        },
        {
            "bufferView" : 21,
            "componentType" : 5123,
            "count" : 30,
            "type" : "SCALAR"
        },
        {
            "bufferView" : 22,
            "componentType" : 5126,
            "count" : 40,
            "max" : [
                9.966085433959961,
                3.0077621936798096,
                11.952007293701172
            ],
            "min" : [
                -9.9594144821167,
                3,
                -11.952007293701172
            ],
            "type" : "VEC3"
        },
        {
            "bufferView" : 23,
            "componentType" : 5126,
            "count" : 40,
            "type" : "VEC3"
        },
        {
            "bufferView" : 24,
            "componentType" : 5126,
            "count" : 40,
            "type" : "VEC2"
        },
        {
            "bufferView" : 25,
            "componentType" : 5123,
            "count" : 60,
            "type" : "SCALAR"
        },
        {
            "bufferView" : 26,
            "componentType" : 5126,
            "count" : 6,
            "max" : [
                -9.983099937438965,
                2.9689536094665527,
                1.9541804790496826
            ],
            "min" : [
                -9.983099937438965,
                0.031046390533447266,
                -1.9541804790496826
            ],
            "type" : "VEC3"
        },
        {
            "bufferView" : 27,
            "componentType" : 5126,
            "count" : 6,
            "type" : "VEC3"
        },
        {
            "bufferView" : 28,
            "componentType" : 5126,
            "count" : 6,
            "type" : "VEC2"
        },
        {
            "bufferView" : 29,
            "componentType" : 5123,
            "count" : 12,
            "type" : "SCALAR"
        }
    ],
    "bufferViews" : [
        {
            "buffer" : 0,
            "byteLength" : 252,
            "byteOffset" : 0
        },
        {
            "buffer" : 0,
            "byteLength" : 252,
            "byteOffset" : 252
        },
        {
            "buffer" : 0,
            "byteLength" : 168,
            "byteOffset" : 504
        },
        {
            "buffer" : 0,
            "byteLength" : 120,
            "byteOffset" : 672
        },
        {
            "buffer" : 0,
            "byteLength" : 696,
            "byteOffset" : 792
        },
        {
            "buffer" : 0,
            "byteLength" : 696,
            "byteOffset" : 1488
        },
        {
            "buffer" : 0,
            "byteLength" : 464,
            "byteOffset" : 2184
        },
        {
            "buffer" : 0,
            "byteLength" : 228,
            "byteOffset" : 2648
        },
        {
            "buffer" : 0,
            "byteLength" : 192,
            "byteOffset" : 2876
        },
        {
            "buffer" : 0,
            "byteLength" : 192,
            "byteOffset" : 3068
        },
        {
            "buffer" : 0,
            "byteLength" : 128,
            "byteOffset" : 3260
        },
        {
            "buffer" : 0,
            "byteLength" : 48,
            "byteOffset" : 3388
        },
        {
            "buffer" : 0,
            "byteLength" : 52551,
            "byteOffset" : 3436
        },
        {
            "buffer" : 0,
            "byteLength" : 48314,
            "byteOffset" : 55988
        },
        {
            "buffer" : 0,
            "byteLength" : 552,
            "byteOffset" : 104304
        },
        {
            "buffer" : 0,
            "byteLength" : 552,
            "byteOffset" : 104856
        },
        {
            "buffer" : 0,
            "byteLength" : 368,
            "byteOffset" : 105408
        },
        {
            "buffer" : 0,
            "byteLength" : 168,
            "byteOffset" : 105776
        },
        {
            "buffer" : 0,
            "byteLength" : 312,
            "byteOffset" : 105944
        },
        {
            "buffer" : 0,
            "byteLength" : 312,
            "byteOffset" : 106256
        },
        {
            "buffer" : 0,
            "byteLength" : 208,
            "byteOffset" : 106568
        },
        {
            "buffer" : 0,
            "byteLength" : 60,
            "byteOffset" : 106776
        },
        {
            "buffer" : 0,
            "byteLength" : 480,
            "byteOffset" : 106836
        },
        {
            "buffer" : 0,
            "byteLength" : 480,
            "byteOffset" : 107316
        },
        {
            "buffer" : 0,
            "byteLength" : 320,
            "byteOffset" : 107796
        },
        {
            "buffer" : 0,
            "byteLength" : 120,
            "byteOffset" : 108116
        },
        {
            "buffer" : 0,
            "byteLength" : 72,
            "byteOffset" : 108236
        },
        {
            "buffer" : 0,
            "byteLength" : 72,
            "byteOffset" : 108308
        },
        {
            "buffer" : 0,
            "byteLength" : 48,
            "byteOffset" : 108380
        },
        {
            "buffer" : 0,
            "byteLength" : 24,
            "byteOffset" : 108428
        },
        {
            "buffer" : 0,
            "byteLength" : 4269,
            "byteOffset" : 108452
        },
        {
            "buffer" : 0,
            "byteLength" : 43317,
            "byteOffset" : 112724
        }
    ],
    "buffers" : [
        {
            "byteLength" : 156044,
            "uri" : "data:application/octet-stream;base64,"
        }
    ]
}
