# Blender v2.90.1 OBJ File: 'Gallery-2.blend'
# www.blender.org
mtllib Gallery2.mtl
v -10.000000 0.000000 -6.987608
v -4.995161 0.000000 -12.000000
v 10.000000 0.000000 -6.987608
v 4.995161 0.000000 -12.000000
v -10.000000 3.000000 -6.987608
v -4.995161 3.000000 -12.000000
v 10.000000 3.000000 -6.987608
v 4.995161 3.000000 -12.000000
v -0.006292 3.715001 0.000000
v 4.948009 3.007762 -11.901841
v 4.972051 3.000000 -11.951891
v 9.958210 3.000000 -6.960493
v 9.911910 3.007762 -6.930450
v -4.960594 3.007762 -11.901841
v -4.978260 3.000000 -11.952007
v -9.964643 3.000000 -6.960844
v -9.924494 3.007762 -6.930450
v 10.000000 0.000000 -1.995542
v 5.595690 0.000000 -4.834954
v 10.000000 3.000000 -1.995542
v 9.934415 0.000000 -1.995542
v 9.934415 3.000000 -1.995542
v 9.934415 0.031046 -1.954180
v 9.934415 2.968954 -1.954180
v 9.983100 0.031046 -1.954180
v 9.983100 2.968954 -1.954180
v -10.000000 0.000000 6.987608
v -4.995161 0.000000 12.000000
v 10.000000 0.000000 6.987608
v 4.995161 0.000000 12.000000
v -10.000000 0.000000 0.000000
v 10.000000 0.000000 0.000000
v 0.000000 0.000000 0.000000
v -10.000000 3.000000 6.987608
v -4.995161 3.000000 12.000000
v 10.000000 3.000000 6.987608
v 4.995161 3.000000 12.000000
v -10.000000 3.000000 0.000000
v 10.000000 3.000000 0.000000
v -9.966085 3.000000 0.000000
v -9.924494 3.007762 0.000000
v 9.959414 3.000000 0.000000
v 9.911910 3.007762 0.000000
v 4.948009 3.007762 11.901841
v 4.972051 3.000000 11.951891
v 9.958210 3.000000 6.960493
v 9.911910 3.007762 6.930450
v -4.960594 3.007762 11.901841
v -4.978260 3.000000 11.952007
v -9.964643 3.000000 6.960844
v -9.924494 3.007762 6.930450
v 10.000000 0.000000 1.995542
v 5.595690 0.000000 4.834954
v 10.000000 3.000000 1.995542
v 9.934415 0.000000 1.995542
v 9.934415 0.000000 0.000000
v 9.934415 3.000000 1.995542
v 9.934415 3.000000 0.000000
v 9.934415 0.031046 1.954180
v 9.934415 0.031046 0.000000
v 9.934415 2.968954 1.954180
v 9.934415 2.968954 0.000000
v 9.983100 0.031046 1.954180
v 9.983100 0.031046 0.000000
v 9.983100 2.968954 1.954180
v 9.983100 2.968954 0.000000
vt 0.000000 0.000000
vt 0.000000 0.000000
vt 0.000000 0.000000
vt 0.000000 0.000000
vt 0.000000 0.000000
vt 0.000000 0.000000
vt 0.000000 0.000000
vt 0.000000 0.000000
vt 0.000000 0.000000
vt 0.000000 0.000000
vt 0.000000 0.000000
vt 0.000000 0.000000
vt 0.000000 0.000000
vt 0.000000 0.000000
vt 0.000000 0.000000
vt 0.000000 0.000000
vt 0.000000 0.000000
vt 0.000000 0.000000
vt 0.000000 0.000000
vt 0.000000 0.000000
vt 0.000000 0.000000
vt 0.000000 0.000000
vt 0.000000 0.000000
vt 0.000000 0.000000
vt 0.000000 0.000000
vt 0.000000 0.000000
vt 0.000000 0.000000
vt 0.000000 0.000000
vt 0.000000 0.000000
vt 0.000000 0.000000
vt 0.000000 0.000000
vt 0.000000 0.000000
vt 0.000000 0.000000
vt 0.000000 0.000000
vt 0.000000 0.000000
vt 0.000000 0.000000
vt 0.000000 0.000000
vt 0.000000 0.000000
vt 0.000000 0.000000
vt 0.000000 0.000000
vt 0.000000 0.000000
vt 0.000000 0.000000
vt 0.000000 0.000000
vt 0.000000 0.000000
vt 0.000000 0.000000
vt 0.000000 0.000000
vt 0.000000 0.000000
vt 0.000000 0.000000
vt 0.000000 0.000000
vt 0.000000 0.000000
vt 0.000000 0.000000
vt 0.000000 0.000000
vt 0.000000 0.000000
vt 0.000000 0.000000
vt 0.000000 0.000000
vt 0.000000 0.000000
vt 0.000000 0.000000
vt 0.000000 0.000000
vt 0.000000 0.000000
vt 0.000000 0.000000
vt 0.000000 0.000000
vt 0.000000 0.000000
vt 0.000000 0.000000
vt 0.000000 0.000000
vt 0.000000 0.000000
vt 0.000000 0.000000
vt 2.012004 0.663346
vt -0.009978 0.663346
vt -0.009978 1.679303
vt 2.012004 1.679303
vt 2.012004 -0.340687
vt -0.009978 -0.340687
vn 1.0000 0.0000 0.0000
vn -0.7076 0.0000 0.7066
vn 0.7076 0.0000 0.7066
vn -1.0000 0.0000 0.0000
vn 0.0000 -1.0000 0.0000
vn 0.0000 1.0000 0.0000
vn 0.0000 0.0000 1.0000
vn -0.7076 0.0000 -0.7066
vn 0.7076 0.0000 -0.7066
vn 0.0000 0.0000 -1.0000
vn -0.1022 -0.9895 0.1021
vn -0.1633 -0.9866 0.0000
vn 0.1866 -0.9824 0.0000
vn 0.1109 -0.9876 0.1107
vn -0.0000 -0.9882 0.1531
vn -0.1022 -0.9895 -0.1021
vn 0.1109 -0.9876 -0.1107
vn -0.0000 -0.9882 -0.1531
vn 0.0711 -0.9975 0.0000
vn -0.0419 -0.9982 0.0419
vn -0.0711 -0.9975 0.0000
vn 0.0419 -0.9982 0.0419
vn 0.0000 -0.9982 0.0593
vn -0.0419 -0.9982 -0.0419
vn 0.0419 -0.9982 -0.0419
vn 0.0000 -0.9982 -0.0593
g Gallery_Gallery_Walls
usemtl Walls
s off
f 31/1/1 1/2/1 5/3/1 38/4/1
f 4/5/2 3/6/2 7/7/2 8/8/2
f 1/2/3 2/9/3 6/10/3 5/3/3
f 3/6/4 18/11/4 20/12/4 7/7/4
f 5/3/5 6/10/5 15/13/5 16/14/5
f 7/7/5 20/12/5 42/15/5 12/16/5
f 8/8/5 7/7/5 12/16/5 11/17/5
f 38/4/5 5/3/5 16/14/5 40/18/5
f 42/15/5 20/12/5 39/19/5
f 39/19/6 20/12/6 22/20/6 58/21/6
f 4/5/7 8/8/7 6/10/7 2/9/7
f 8/8/5 11/17/5 15/13/5 6/10/5
f 31/1/1 38/4/1 34/22/1 27/23/1
f 30/24/8 37/25/8 36/26/8 29/27/8
f 27/23/9 34/22/9 35/28/9 28/29/9
f 29/27/4 36/26/4 54/30/4 52/31/4
f 34/22/5 50/32/5 49/33/5 35/28/5
f 36/26/5 46/34/5 42/15/5 54/30/5
f 37/25/5 45/35/5 46/34/5 36/26/5
f 38/4/5 40/18/5 50/32/5 34/22/5
f 42/15/5 39/19/5 54/30/5
f 39/19/6 58/21/6 57/36/6 54/30/6
f 30/24/10 28/29/10 35/28/10 37/25/10
f 37/25/5 35/28/5 49/33/5 45/35/5
g Gallery_Gallery_Floor
usemtl Floor
f 33/37/6 32/38/6 18/11/6 19/39/6
f 3/6/6 4/5/6 19/39/6
f 31/1/6 33/37/6 1/2/6
f 1/2/6 33/37/6 2/9/6
f 19/39/6 18/11/6 3/6/6
f 19/39/6 4/5/6 33/37/6
f 18/11/5 32/38/5 56/40/5 21/41/5
f 4/5/6 2/9/6 33/37/6
f 33/37/6 53/42/6 52/31/6 32/38/6
f 29/27/6 53/42/6 30/24/6
f 31/1/6 27/23/6 33/37/6
f 27/23/6 28/29/6 33/37/6
f 53/42/6 29/27/6 52/31/6
f 53/42/6 33/37/6 30/24/6
f 52/31/5 55/43/5 56/40/5 32/38/5
f 30/24/6 33/37/6 28/29/6
g Gallery_Gallery_EdgeLight
usemtl EdgeLight
f 11/17/11 12/16/11 13/44/11 10/45/11
f 12/16/12 42/15/12 43/46/12 13/44/12
f 17/47/13 41/48/13 40/18/13 16/14/13
f 14/49/14 17/47/14 16/14/14 15/13/14
f 11/17/15 10/45/15 14/49/15 15/13/15
f 45/35/16 44/50/16 47/51/16 46/34/16
f 46/34/12 47/51/12 43/46/12 42/15/12
f 51/52/13 50/32/13 40/18/13 41/48/13
f 48/53/17 49/33/17 50/32/17 51/52/17
f 45/35/18 49/33/18 48/53/18 44/50/18
g Gallery_Gallery_Roof
usemtl Roof
f 41/48/19 17/47/19 9/54/19
f 10/45/20 13/44/20 9/54/20
f 13/44/21 43/46/21 9/54/21
f 17/47/22 14/49/22 9/54/22
f 10/45/23 9/54/23 14/49/23
f 41/48/19 9/54/19 51/52/19
f 44/50/24 9/54/24 47/51/24
f 47/51/21 9/54/21 43/46/21
f 51/52/25 9/54/25 48/53/25
f 44/50/26 48/53/26 9/54/26
g Gallery_Gallery_DoorFrame
usemtl DoorFrame
f 20/12/10 18/11/10 21/41/10 22/20/10
f 58/21/4 22/20/4 24/55/4 62/56/4
f 24/55/7 23/57/7 25/58/7 26/59/7
f 21/41/4 56/40/4 60/60/4 23/57/4
f 22/20/4 21/41/4 23/57/4 24/55/4
f 62/56/5 24/55/5 26/59/5 66/61/5
f 23/57/6 60/60/6 64/62/6 25/58/6
f 54/30/7 57/36/7 55/43/7 52/31/7
f 58/21/4 62/56/4 61/63/4 57/36/4
f 61/63/10 65/64/10 63/65/10 59/66/10
f 55/43/4 59/66/4 60/60/4 56/40/4
f 57/36/4 61/63/4 59/66/4 55/43/4
f 62/56/5 66/61/5 65/64/5 61/63/5
f 59/66/6 63/65/6 64/62/6 60/60/6
g Gallery_Gallery_Door
usemtl Door
f 64/67/4 66/68/4 26/69/4 25/70/4
f 64/67/4 63/71/4 65/72/4 66/68/4
v -10.000000 3.000000 -6.987608
v -10.000000 3.000000 2.100000
v -10.000000 3.000000 6.987608
v -10.000000 3.000000 -2.100000
v -15.999999 3.000000 -10.481411
v -15.999999 3.000000 3.150000
v -15.999999 3.000000 10.481411
v -15.999999 3.000000 -3.150000
v -18.999998 3.000000 3.000000
v -18.999998 3.000000 -3.000000
v -15.999999 6.000000 -10.481411
v -15.999999 6.000000 3.150000
v -15.999999 6.000000 10.481411
v -15.315788 7.000000 -9.957340
v -15.999999 6.000000 -3.150000
v -18.999998 6.000000 3.000000
v -18.999998 6.000000 -3.000000
v -10.000000 4.200000 2.100000
v -10.000000 4.200000 -2.100000
v -8.217582 3.402550 2.100000
v -8.217582 3.402550 -2.100000
v -15.315788 7.000000 2.992499
v -15.315788 7.000000 9.957340
v -15.315788 7.000000 -2.992499
v -18.165787 7.000000 2.849999
v -18.165787 7.000000 -2.849999
v -12.715788 8.000000 -7.965871
v -12.715788 8.000000 2.393999
v -12.715788 8.000000 7.965871
v -12.715788 8.000000 -2.394000
v -14.995787 8.000000 2.279999
v -14.995787 8.000000 -2.279999
v -10.000000 3.000000 2.008344
v -9.983312 3.003769 2.000000
v -9.986132 2.999072 2.000000
v -9.988943 2.998750 2.000000
v -9.990184 2.998651 2.000000
v -9.991791 2.998547 2.000000
v -10.000000 2.998332 2.000000
v -9.983312 3.000000 2.000000
v -10.000000 3.000000 1.991656
v -10.016291 3.000000 2.001810
v -9.983312 3.003769 -2.000000
v -10.000000 3.000000 -2.008344
v -10.016291 3.000000 -2.001810
v -10.000000 3.000000 -1.991656
v -9.983312 3.000000 -2.000000
v -10.000000 2.998332 -2.000000
v -9.991791 2.998547 -2.000000
v -9.990184 2.998651 -2.000000
v -9.988943 2.998750 -2.000000
v -9.986132 2.999072 -2.000000
v -9.983312 4.184884 2.000000
v -10.000000 4.200000 2.008344
v -9.983312 4.184884 -2.000000
v -10.000000 4.200000 -2.008344
v -8.226470 3.398876 2.000000
v -8.217582 3.402550 2.008344
v -8.217582 3.402550 -2.008344
v -8.228945 3.399984 -2.000000
v -8.211795 3.400985 -2.000000
v -10.000000 3.700000 -6.987608
v -10.000000 3.700000 -2.100000
v -10.000000 3.700000 6.987608
v -10.000000 3.700000 2.100000
v -8.211795 3.400985 -2.000000
v -8.217582 3.402550 -2.008344
v -10.000000 3.730000 -6.987608
v -10.000000 3.730000 -2.100000
v -10.000000 3.730000 6.987608
v -10.000000 3.730000 2.100000
v -9.924494 3.730000 2.082822
v -9.924494 3.730000 -6.930450
v -9.924494 3.730000 -2.082822
v -9.924494 3.730000 6.930450
v -16.922310 3.000000 2.769145
v -18.999998 3.000000 1.990485
v -18.999998 3.000000 -2.000303
v -17.297379 3.000000 -2.810819
v -18.999998 6.000000 -1.965614
v -18.999998 6.000000 1.978247
v -18.999998 5.576218 1.979976
v -18.999998 5.589662 -1.970359
v -18.896320 3.000000 1.990485
v -18.896320 3.000000 -2.000303
v -18.896320 5.576218 1.979976
v -18.896320 5.589662 -1.970359
v -18.896320 3.024271 1.953077
v -18.896320 3.024271 -1.962712
v -18.896320 5.552073 1.942765
v -18.896320 5.565265 -1.933330
v -18.971273 3.024271 1.953077
v -18.971273 3.024271 -1.962712
v -18.971273 5.552073 1.942765
v -18.971273 5.565265 -1.933330
vt 0.000000 0.000000
vt 0.000000 0.000000
vt 0.000000 0.000000
vt 0.000000 0.000000
vt 0.000000 0.000000
vt 0.000000 0.000000
vt 0.000000 0.000000
vt 0.000000 0.000000
vt 0.000000 0.000000
vt 0.000000 0.000000
vt 0.000000 0.000000
vt 0.000000 0.000000
vt 0.000000 0.000000
vt 0.000000 0.000000
vt 0.000000 0.000000
vt 0.000000 0.000000
vt 0.000000 0.000000
vt 0.000000 0.000000
vt 0.000000 0.000000
vt 0.000000 0.000000
vt 0.000000 0.000000
vt 0.000000 0.000000
vt 0.000000 0.000000
vt 0.000000 0.000000
vt 0.000000 0.000000
vt 0.000000 0.000000
vt 0.000000 0.000000
vt 0.000000 0.000000
vt 0.000000 0.000000
vt 0.000000 0.000000
vt 0.000000 0.000000
vt 0.000000 0.000000
vt 0.000000 0.000000
vt 0.000000 0.000000
vt 0.000000 0.000000
vt 0.000000 0.000000
vt 0.000000 0.000000
vt 0.000000 0.000000
vt 0.000000 0.000000
vt 0.000000 0.000000
vt 0.000000 0.000000
vt 0.000000 0.000000
vt 0.000000 0.000000
vt 0.000000 0.000000
vt 0.000000 0.000000
vt 0.000000 0.000000
vt 0.000000 0.000000
vt 0.000000 0.000000
vt 0.000000 0.000000
vt 0.000000 0.000000
vt 0.000000 0.000000
vt 0.000000 0.000000
vt 0.000000 0.000000
vt 0.000000 0.000000
vt 0.000000 0.000000
vt 0.000000 0.000000
vt 0.000000 0.000000
vt 0.000000 0.000000
vt 0.000000 0.000000
vt 0.000000 0.000000
vt 0.000000 0.000000
vt 0.000000 0.000000
vt 0.000000 0.000000
vt 0.000000 0.000000
vt 0.000000 0.000000
vt 0.000000 0.000000
vt 0.000000 0.000000
vt 0.000000 0.000000
vt 0.000000 0.000000
vt 0.000000 0.000000
vt 0.000000 0.000000
vt 0.000000 0.000000
vt 0.000000 0.000000
vt 0.000000 0.000000
vt 0.000000 0.000000
vt 0.000000 0.000000
vt 0.000000 0.000000
vt 0.000000 0.000000
vt 0.000000 0.000000
vt 0.000000 0.000000
vt 0.000000 0.000000
vt 0.000000 0.000000
vt 0.000000 0.000000
vt 0.000000 0.000000
vt 0.000000 0.000000
vt 2.481954 -0.331147
vt 2.483580 1.668869
vt 0.481979 1.668873
vt 0.482064 -0.331217
vt 0.000000 0.000000
vt 0.000000 0.000000
vt 0.000000 0.000000
vt 0.000000 0.000000
vt 0.000000 0.000000
vt 0.000000 0.000000
vt 0.000000 0.000000
vt 0.000000 0.000000
vt 0.000000 0.000000
vt 0.000000 0.000000
vn 0.8253 -0.5647 0.0000
vn 1.0000 0.0000 0.0000
vn 0.0499 0.0000 -0.9988
vn 0.0499 0.0000 0.9988
vn 0.7679 -0.6406 0.0000
vn 0.0490 -0.1881 -0.9809
vn 0.0490 -0.1881 0.9809
vn -0.0566 0.9912 -0.1198
vn -1.0000 0.0000 0.0000
vn 0.0000 1.0000 0.0000
vn 0.0000 -1.0000 0.0000
vn 0.0000 0.0000 -1.0000
vn 0.4084 0.9128 0.0000
vn 0.0000 0.0000 1.0000
vn -0.0566 0.9912 0.1198
vn -0.0568 0.9734 0.2220
vn 0.0404 -0.5883 0.8076
vn 0.3590 -0.9333 0.0000
vn 0.3008 -0.9537 0.0000
vn 0.0404 -0.5883 -0.8076
vn -0.4472 0.0000 0.8944
vn -0.4472 0.0000 -0.8944
vn 0.3132 0.7000 0.6418
vn 0.3132 0.7000 -0.6418
vn 0.0000 1.0000 0.0034
vn 0.0000 0.0041 1.0000
vn 0.0000 0.0116 -0.9999
vn 0.0000 -0.0116 0.9999
vn 0.0000 -1.0000 -0.0034
vn 0.0000 -0.0041 -1.0000
g TopFloorFront_TopFloor_Walls.001
usemtl Walls.001
s off
f 81/73/27 77/74/27 80/75/27 90/76/27
f 75/77/28 143/78/28 148/79/28 82/80/28
f 75/77/29 82/80/29 78/81/29 72/82/29
f 74/83/28 71/84/28 77/74/28 81/73/28
f 73/85/28 72/82/28 78/81/28 79/86/28
f 74/83/30 81/73/30 83/87/30 76/88/30
f 82/80/31 147/89/31 91/90/31
f 82/80/32 91/90/32 88/91/32 78/81/32
f 79/86/27 78/81/27 88/91/27 89/92/27
f 81/73/33 90/76/33 92/93/33 83/87/33
f 99/94/34 100/95/34 101/96/34 102/97/34 103/98/34 104/99/34 105/100/34 106/101/34 107/102/34 108/103/34
f 68/104/35 69/105/35 130/106/35 131/107/35
f 134/108/36 135/109/36 140/110/36 139/111/36
f 137/112/36 136/113/36 141/114/36 138/115/36
f 70/116/35 129/117/35 128/118/35 67/119/35
f 146/120/28 149/121/28 83/87/28
f 147/89/28 148/79/28 149/121/28 146/120/28
f 92/93/31 146/120/31 83/87/31
f 91/90/31 147/89/31 146/120/31 92/93/31
f 83/87/28 149/121/28 144/122/28 76/88/28
f 82/80/28 148/79/28 147/89/28
g TopFloorFront_TopFloor_TopFloor.005
usemtl TopFloor.005
f 108/103/36 107/102/36 112/123/36 111/124/36 145/125/36 144/122/36 143/78/36 142/126/36
f 69/105/36 68/104/36 72/82/36 73/85/36
f 70/116/36 67/119/36 71/84/36 74/83/36
f 70/116/36 74/83/36 76/88/36 145/125/36 111/124/36 110/127/36
f 99/94/36 108/103/36 142/126/36 75/77/36 72/82/36 68/104/36
f 142/126/36 143/78/36 75/77/36
f 144/122/36 145/125/36 76/88/36
f 143/78/37 144/122/37 151/128/37 150/129/37
g TopFloorFront_TopFloor_RailingJoinery.005
usemtl RailingJoinery.005
f 68/104/35 84/130/35 120/131/35 99/94/35
f 123/132/38 100/95/38 119/133/38
f 84/130/39 86/134/39 124/135/39 120/131/39
f 87/136/38 70/116/38 85/137/38
f 85/137/39 122/138/39 125/139/39 87/136/39
f 84/130/40 68/104/40 86/134/40
f 121/140/40 109/141/40 126/142/40
f 110/127/35 122/138/35 85/137/35 70/116/35
f 109/141/41 110/127/41 111/124/41 112/123/41 113/143/41 114/144/41 115/145/41 116/146/41 117/147/41 118/148/41
f 125/139/42 126/142/42 127/149/42 132/150/42 133/151/42
g TopFloorFront_TopFloor_Roof.002
usemtl Roof.002
f 90/76/43 96/152/43 98/153/43 92/93/43
f 90/76/44 80/75/44 93/154/44 96/152/44
f 89/92/44 88/91/44 94/155/44 95/156/44
f 91/90/45 92/93/45 98/153/45 97/157/45
f 91/90/46 97/157/46 94/155/46 88/91/46
g TopFloorFront_TopFloor_EdgeLight.001
usemtl EdgeLight.001
f 122/138/47 110/127/47 109/141/47 121/140/47
f 99/94/48 120/131/48 119/133/48 100/95/48
f 121/140/49 126/142/49 125/139/49 122/138/49
f 120/131/50 124/135/50 123/132/50 119/133/50
f 131/107/35 130/106/35 136/113/35 137/112/35
f 128/118/35 129/117/35 135/109/35 134/108/35
g TopFloorFront_TopFloor_Door
usemtl Door
f 161/158/28 160/159/28 158/160/28 159/161/28
g TopFloorFront_TopFloor_DoorFrame
usemtl DoorFrame
f 153/162/28 152/163/28 156/164/28 157/165/28
f 149/121/51 148/79/51 152/163/51 153/162/51
f 148/79/52 143/78/52 150/129/52 152/163/52
f 144/122/53 149/121/53 153/162/53 151/128/53
f 155/166/54 157/165/54 161/167/54 159/168/54
f 152/163/28 150/129/28 154/169/28 156/164/28
f 151/128/28 153/162/28 157/165/28 155/166/28
f 150/129/28 151/128/28 155/166/28 154/169/28
f 154/169/36 155/166/36 159/168/36 158/170/36
f 157/165/55 156/164/55 160/171/55 161/167/55
f 156/164/56 154/169/56 158/170/56 160/171/56
