# Blender v2.90.1 OBJ File: 'Gallery.blend'
# www.blender.org
mtllib Gallery.mtl
v -10.000000 0.000000 -6.987608
v -4.995161 0.000000 -12.000000
v 10.000000 0.000000 -6.987608
v 4.995161 0.000000 -12.000000
v -10.000000 3.000000 -6.987608
v -4.995161 3.000000 -12.000000
v 10.000000 3.000000 -6.987608
v 4.995161 3.000000 -12.000000
v -0.006292 3.715001 0.000000
v 4.948009 3.007762 -11.901841
v 4.972051 3.000000 -11.951891
v 9.958210 3.000000 -6.960493
v 9.911910 3.007762 -6.930450
v -4.960594 3.007762 -11.901841
v -4.978260 3.000000 -11.952007
v -9.964643 3.000000 -6.960844
v -9.924494 3.007762 -6.930450
v 10.000000 0.000000 -1.995542
v 5.595690 0.000000 -4.834954
v 10.000000 3.000000 -1.995542
v 9.934415 0.000000 -1.995542
v 9.934415 3.000000 -1.995542
v 9.934415 0.031046 -1.954180
v 9.934415 2.968954 -1.954180
v 9.983100 0.031046 -1.954180
v 9.983100 2.968954 -1.954180
v -10.000000 0.000000 6.987608
v -4.995161 0.000000 12.000000
v 10.000000 0.000000 6.987608
v 4.995161 0.000000 12.000000
v -10.000000 0.000000 0.000000
v 10.000000 0.000000 0.000000
v 0.000000 0.000000 0.000000
v -10.000000 3.000000 6.987608
v -4.995161 3.000000 12.000000
v 10.000000 3.000000 6.987608
v 4.995161 3.000000 12.000000
v -10.000000 3.000000 0.000000
v 10.000000 3.000000 0.000000
v -9.966085 3.000000 0.000000
v -9.924494 3.007762 0.000000
v 9.959414 3.000000 0.000000
v 9.911910 3.007762 0.000000
v 4.948009 3.007762 11.901841
v 4.972051 3.000000 11.951891
v 9.958210 3.000000 6.960493
v 9.911910 3.007762 6.930450
v -4.960594 3.007762 11.901841
v -4.978260 3.000000 11.952007
v -9.964643 3.000000 6.960844
v -9.924494 3.007762 6.930450
v 10.000000 0.000000 1.995542
v 5.595690 0.000000 4.834954
v 10.000000 3.000000 1.995542
v 9.934415 0.000000 1.995542
v 9.934415 0.000000 0.000000
v 9.934415 3.000000 1.995542
v 9.934415 3.000000 0.000000
v 9.934415 0.031046 1.954180
v 9.934415 0.031046 0.000000
v 9.934415 2.968954 1.954180
v 9.934415 2.968954 0.000000
v 9.983100 0.031046 1.954180
v 9.983100 0.031046 0.000000
v 9.983100 2.968954 1.954180
v 9.983100 2.968954 0.000000
vt 0.000000 0.000000
vt 0.000000 0.000000
vt 0.000000 0.000000
vt 0.000000 0.000000
vt 0.000000 0.000000
vt 0.000000 0.000000
vt 0.000000 0.000000
vt 0.000000 0.000000
vt 0.000000 0.000000
vt 0.000000 0.000000
vt 0.000000 0.000000
vt 0.000000 0.000000
vt 0.000000 0.000000
vt 0.000000 0.000000
vt 0.000000 0.000000
vt 0.000000 0.000000
vt 0.000000 0.000000
vt 0.000000 0.000000
vt 0.000000 0.000000
vt 0.000000 0.000000
vt 0.000000 0.000000
vt 0.000000 0.000000
vt 0.000000 0.000000
vt 0.000000 0.000000
vt 0.000000 0.000000
vt 0.000000 0.000000
vt 0.000000 0.000000
vt 0.000000 0.000000
vt 0.000000 0.000000
vt 0.000000 0.000000
vt 0.000000 0.000000
vt 0.000000 0.000000
vt 0.000000 0.000000
vt 0.000000 0.000000
vt 0.000000 0.000000
vt 0.000000 0.000000
vt 0.000000 0.000000
vt 0.000000 0.000000
vt 0.000000 0.000000
vt 0.000000 0.000000
vt 0.000000 0.000000
vt 0.000000 0.000000
vt 0.000000 0.000000
vt 0.000000 0.000000
vt 0.000000 0.000000
vt 0.000000 0.000000
vt 0.000000 0.000000
vt 0.000000 0.000000
vt 0.000000 0.000000
vt 0.000000 0.000000
vt 0.000000 0.000000
vt 0.000000 0.000000
vt 0.000000 0.000000
vt 0.000000 0.000000
vt 0.000000 0.000000
vt 0.000000 0.000000
vt 0.000000 0.000000
vt 0.000000 0.000000
vt 0.000000 0.000000
vt 0.000000 0.000000
vt 0.000000 0.000000
vt 0.000000 0.000000
vt 0.000000 0.000000
vt 0.000000 0.000000
vt 0.000000 0.000000
vt 0.000000 0.000000
vn 1.0000 0.0000 0.0000
vn -0.7076 0.0000 0.7066
vn 0.7076 0.0000 0.7066
vn -1.0000 0.0000 0.0000
vn 0.0000 0.0000 -1.0000
vn 0.0000 -1.0000 0.0000
vn 0.0000 1.0000 0.0000
vn 0.0000 0.0000 1.0000
vn -0.7076 0.0000 -0.7066
vn 0.7076 0.0000 -0.7066
vn -0.1022 -0.9895 0.1021
vn -0.1633 -0.9866 0.0000
vn 0.1866 -0.9824 0.0000
vn 0.1109 -0.9876 0.1107
vn -0.0000 -0.9882 0.1531
vn -0.1022 -0.9895 -0.1021
vn 0.1109 -0.9876 -0.1107
vn -0.0000 -0.9882 -0.1531
vn 0.0711 -0.9975 0.0000
vn -0.0419 -0.9982 0.0419
vn -0.0711 -0.9975 0.0000
vn 0.0419 -0.9982 0.0419
vn 0.0000 -0.9982 0.0593
vn -0.0419 -0.9982 -0.0419
vn 0.0419 -0.9982 -0.0419
vn 0.0000 -0.9982 -0.0593
g Gallery_Gallery_Walls
usemtl Walls
s off
f 31/1/1 1/2/1 5/3/1 38/4/1
f 4/5/2 3/6/2 7/7/2 8/8/2
f 1/2/3 2/9/3 6/10/3 5/3/3
f 3/6/4 18/11/4 20/12/4 7/7/4
f 20/12/5 18/11/5 21/13/5 22/14/5
f 5/3/6 6/10/6 15/15/6 16/16/6
f 7/7/6 20/12/6 42/17/6 12/18/6
f 8/8/6 7/7/6 12/18/6 11/19/6
f 38/4/6 5/3/6 16/16/6 40/20/6
f 42/17/6 20/12/6 39/21/6
f 58/22/4 22/14/4 24/23/4 62/24/4
f 39/21/7 20/12/7 22/14/7 58/22/7
f 24/23/8 23/25/8 25/26/8 26/27/8
f 22/14/4 21/13/4 23/25/4 24/23/4
f 62/24/6 24/23/6 26/27/6 66/28/6
f 4/5/8 8/8/8 6/10/8 2/9/8
f 8/8/6 11/19/6 15/15/6 6/10/6
f 31/1/1 38/4/1 34/29/1 27/30/1
f 30/31/9 37/32/9 36/33/9 29/34/9
f 27/30/10 34/29/10 35/35/10 28/36/10
f 29/34/4 36/33/4 54/37/4 52/38/4
f 54/37/8 57/39/8 55/40/8 52/38/8
f 34/29/6 50/41/6 49/42/6 35/35/6
f 36/33/6 46/43/6 42/17/6 54/37/6
f 37/32/6 45/44/6 46/43/6 36/33/6
f 38/4/6 40/20/6 50/41/6 34/29/6
f 42/17/6 39/21/6 54/37/6
f 58/22/4 62/24/4 61/45/4 57/39/4
f 39/21/7 58/22/7 57/39/7 54/37/7
f 61/45/5 65/46/5 63/47/5 59/48/5
f 57/39/4 61/45/4 59/48/4 55/40/4
f 62/24/6 66/28/6 65/46/6 61/45/6
f 30/31/5 28/36/5 35/35/5 37/32/5
f 37/32/6 35/35/6 49/42/6 45/44/6
g Gallery_Gallery_Floor
usemtl Floor
f 33/49/7 32/50/7 18/11/7 19/51/7
f 3/6/7 4/5/7 19/51/7
f 31/1/7 33/49/7 1/2/7
f 1/2/7 33/49/7 2/9/7
f 19/51/7 18/11/7 3/6/7
f 19/51/7 4/5/7 33/49/7
f 18/11/6 32/50/6 56/52/6 21/13/6
f 21/13/4 56/52/4 60/53/4 23/25/4
f 23/25/7 60/53/7 64/54/7 25/26/7
f 4/5/7 2/9/7 33/49/7
f 33/49/7 53/55/7 52/38/7 32/50/7
f 29/34/7 53/55/7 30/31/7
f 31/1/7 27/30/7 33/49/7
f 27/30/7 28/36/7 33/49/7
f 53/55/7 29/34/7 52/38/7
f 53/55/7 33/49/7 30/31/7
f 52/38/6 55/40/6 56/52/6 32/50/6
f 55/40/4 59/48/4 60/53/4 56/52/4
f 59/48/7 63/47/7 64/54/7 60/53/7
f 30/31/7 33/49/7 28/36/7
f 64/54/4 66/28/4 26/27/4 25/26/4
f 64/54/4 63/47/4 65/46/4 66/28/4
g Gallery_Gallery_EdgeLight
usemtl EdgeLight
f 11/19/11 12/18/11 13/56/11 10/57/11
f 12/18/12 42/17/12 43/58/12 13/56/12
f 17/59/13 41/60/13 40/20/13 16/16/13
f 14/61/14 17/59/14 16/16/14 15/15/14
f 11/19/15 10/57/15 14/61/15 15/15/15
f 45/44/16 44/62/16 47/63/16 46/43/16
f 46/43/12 47/63/12 43/58/12 42/17/12
f 51/64/13 50/41/13 40/20/13 41/60/13
f 48/65/17 49/42/17 50/41/17 51/64/17
f 45/44/18 49/42/18 48/65/18 44/62/18
g Gallery_Gallery_Roof
usemtl Roof
f 41/60/19 17/59/19 9/66/19
f 10/57/20 13/56/20 9/66/20
f 13/56/21 43/58/21 9/66/21
f 17/59/22 14/61/22 9/66/22
f 10/57/23 9/66/23 14/61/23
f 41/60/19 9/66/19 51/64/19
f 44/62/24 9/66/24 47/63/24
f 47/63/21 9/66/21 43/58/21
f 51/64/25 9/66/25 48/65/25
f 44/62/26 48/65/26 9/66/26
